<svg width="1366" height="143" viewBox="0 0 1366 143" fill="none" xmlns="http://www.w3.org/2000/svg">
<path d="M1365.39 109.792C1364.39 119.443 1360.88 127.903 1354.86 135.172C1348.84 142.441 1341.01 148.081 1331.36 152.092C1321.84 156.103 1311.12 158.108 1299.21 158.108C1286.05 158.108 1274.46 155.727 1264.43 150.964C1254.41 146.201 1246.57 139.559 1240.93 131.036C1235.29 122.513 1232.47 112.675 1232.47 101.52C1232.47 90.2402 1235.29 80.3388 1240.93 71.8161C1246.57 63.2935 1254.41 56.6508 1264.43 51.8881C1274.46 47.0001 1286.05 44.5562 1299.21 44.5562C1311.12 44.5562 1321.84 46.6242 1331.36 50.7602C1341.01 54.7708 1348.84 60.4108 1354.86 67.6801C1360.88 74.8241 1364.39 83.2841 1365.39 93.0602H1327.22C1325.85 86.6682 1322.65 81.7802 1317.64 78.3961C1312.62 74.8868 1306.48 73.1321 1299.21 73.1321C1293.57 73.1321 1288.62 74.2602 1284.36 76.5162C1280.22 78.6468 1276.97 81.8428 1274.58 86.1041C1272.33 90.2401 1271.2 95.3788 1271.2 101.52C1271.2 107.536 1272.33 112.675 1274.58 116.936C1276.97 121.072 1280.22 124.268 1284.36 126.524C1288.62 128.655 1293.57 129.72 1299.21 129.72C1306.48 129.72 1312.62 127.903 1317.64 124.268C1322.78 120.633 1325.97 115.808 1327.22 109.792H1365.39Z" fill="white" fill-opacity="0.08"/>
<path d="M1053.32 35.908C1045.92 35.908 1040.6 37.224 1037.34 39.856C1034.2 42.488 1032.64 46.7493 1032.64 52.64V155.1H994.097V56.024C994.097 45.6213 996.165 36.7853 1000.3 29.516C1004.44 22.2467 1010.52 16.732 1018.54 12.972C1026.68 9.212 1036.77 7.33201 1048.81 7.33201C1053.57 7.33201 1057.89 7.70801 1061.78 8.46C1065.79 9.212 1069.74 10.2773 1073.62 11.656V39.856C1070.49 38.4773 1067.23 37.4747 1063.85 36.848C1060.59 36.2213 1057.08 35.908 1053.32 35.908ZM972.289 84.976V56.588H1072.12V84.976H972.289ZM1145.81 35.908C1138.42 35.908 1133.09 37.224 1129.83 39.856C1126.57 42.488 1124.95 46.7493 1124.95 52.64V155.1H1086.59V56.024C1086.59 45.6213 1088.66 36.7853 1092.8 29.516C1096.93 22.2467 1103.01 16.732 1111.03 12.972C1119.18 9.212 1129.21 7.33201 1141.11 7.33201C1146 7.33201 1150.39 7.70801 1154.27 8.46C1158.16 9.212 1162.11 10.2773 1166.12 11.656V39.856C1162.98 38.4773 1159.73 37.4747 1156.34 36.848C1153.08 36.2213 1149.57 35.908 1145.81 35.908ZM1064.79 84.976V56.588H1164.61V84.976H1064.79ZM1177.77 46.06L1197.14 49.82L1216.31 46.06V155.1H1177.77V46.06ZM1196.95 37.224C1190.31 37.224 1184.92 35.5947 1180.78 32.336C1176.65 28.952 1174.58 24.3773 1174.58 18.612C1174.58 12.972 1176.65 8.46 1180.78 5.076C1184.92 1.692 1190.31 0 1196.95 0C1203.84 0 1209.29 1.692 1213.31 5.076C1217.44 8.46 1219.51 12.972 1219.51 18.612C1219.51 24.3773 1217.44 28.952 1213.31 32.336C1209.29 35.5947 1203.84 37.224 1196.95 37.224Z" fill="white" fill-opacity="0.08"/>
<path d="M920.548 155.1L915.66 116.372L920.736 101.52L915.66 86.6681L920.548 47.7521H960.404L953.636 101.332L960.404 155.1H920.548ZM929.572 101.52C927.817 112.8 924.308 122.701 919.044 131.224C913.905 139.747 907.325 146.389 899.304 151.152C891.408 155.789 882.384 158.108 872.232 158.108C861.704 158.108 852.429 155.789 844.408 151.152C836.512 146.389 830.308 139.747 825.796 131.224C821.284 122.576 819.028 112.675 819.028 101.52C819.028 90.1148 821.284 80.1508 825.796 71.6281C830.308 63.1055 836.512 56.4628 844.408 51.7001C852.429 46.9375 861.704 44.5562 872.232 44.5562C882.384 44.5562 891.408 46.9375 899.304 51.7001C907.325 56.3375 913.968 62.9175 919.232 71.4401C924.496 79.8375 927.943 89.8642 929.572 101.52ZM857.944 101.52C857.944 106.784 859.009 111.484 861.14 115.62C863.396 119.756 866.466 123.015 870.352 125.396C874.237 127.652 878.686 128.78 883.7 128.78C888.964 128.78 893.915 127.652 898.552 125.396C903.189 123.015 907.263 119.756 910.772 115.62C914.281 111.484 916.913 106.784 918.668 101.52C916.913 96.1308 914.281 91.3681 910.772 87.2321C907.263 83.0961 903.189 79.8375 898.552 77.4561C893.915 75.0748 888.964 73.8841 883.7 73.8841C878.686 73.8841 874.237 75.0748 870.352 77.4561C866.466 79.8375 863.396 83.0961 861.14 87.2321C859.009 91.3681 857.944 96.1308 857.944 101.52Z" fill="white" fill-opacity="0.08"/>
<path d="M717.304 47.7521H756.408L762.8 86.1041V155.1H724.448V83.8482L717.304 47.7521ZM813.184 46.0601V78.7721C809.424 78.0201 805.852 77.5188 802.468 77.2681C799.209 76.8921 796.201 76.7041 793.444 76.7041C787.929 76.7041 782.853 77.8321 778.216 80.0882C773.578 82.2188 769.818 85.7908 766.936 90.8041C764.178 95.8175 762.8 102.523 762.8 110.92L755.468 101.896C756.47 94.1255 757.974 86.8561 759.98 80.0882C761.985 73.1948 764.68 67.1161 768.064 61.8521C771.573 56.4628 775.897 52.2641 781.036 49.2561C786.174 46.1228 792.441 44.5562 799.836 44.5562C801.966 44.5562 804.16 44.6815 806.416 44.9321C808.672 45.1828 810.928 45.5588 813.184 46.0601Z" fill="white" fill-opacity="0.08"/>
<path d="M599.702 76.1403V59.4083L621.51 50.5723L638.054 18.8003H659.862V47.7523H704.982V76.1403H659.862V107.724C659.862 115.495 661.429 120.947 664.562 124.08C667.696 127.214 673.398 128.78 681.67 128.78C686.934 128.78 691.572 128.342 695.582 127.464C699.718 126.462 703.478 125.208 706.862 123.704V152.656C703.102 154.035 698.152 155.288 692.01 156.416C685.869 157.544 679.54 158.108 673.022 158.108C661.116 158.108 651.34 156.291 643.694 152.656C636.174 149.022 630.597 143.82 626.962 137.052C623.328 130.159 621.51 122.138 621.51 112.988V76.1403H599.702Z" fill="white" fill-opacity="0.08"/>
<path d="M536.223 158.108C523.188 158.108 511.532 155.727 501.255 150.964C491.103 146.201 483.082 139.559 477.191 131.036C471.3 122.388 468.355 112.361 468.355 100.956C468.355 89.8015 471.175 80.0255 476.815 71.6281C482.455 63.1055 490.163 56.4628 499.939 51.7001C509.84 46.9375 520.995 44.5562 533.403 44.5562C546.312 44.5562 557.279 47.3761 566.303 53.0161C575.452 58.5308 582.471 66.3642 587.359 76.5162C592.372 86.6682 594.879 98.6375 594.879 112.424H499.375V89.3001H573.259L560.663 97.3841C560.162 91.8695 558.783 87.2321 556.527 83.4721C554.271 79.5868 551.263 76.6415 547.503 74.6361C543.868 72.6308 539.482 71.6281 534.343 71.6281C528.703 71.6281 523.878 72.7561 519.867 75.0121C515.856 77.2681 512.723 80.4015 510.467 84.4121C508.211 88.2975 507.083 92.8722 507.083 98.1362C507.083 104.904 508.587 110.669 511.595 115.432C514.728 120.069 519.24 123.641 525.131 126.148C531.147 128.655 538.479 129.908 547.127 129.908C555.023 129.908 562.856 128.905 570.627 126.9C578.523 124.769 585.667 121.824 592.059 118.064V142.504C584.664 147.517 576.204 151.403 566.679 154.16C557.279 156.792 547.127 158.108 536.223 158.108Z" fill="white" fill-opacity="0.08"/>
<path d="M319.942 47.7521H358.482V78.5842L356.79 83.0961V113.176L358.482 122.012V186.12H319.942V47.7521ZM346.262 101.52C347.892 89.8642 351.276 79.8375 356.414 71.4401C361.678 62.9175 368.321 56.3375 376.342 51.7001C384.363 46.9375 393.45 44.5562 403.602 44.5562C414.13 44.5562 423.342 46.9375 431.238 51.7001C439.259 56.4628 445.464 63.1055 449.85 71.6281C454.362 80.1508 456.618 90.1148 456.618 101.52C456.618 112.675 454.362 122.576 449.85 131.224C445.464 139.747 439.259 146.389 431.238 151.152C423.342 155.789 414.13 158.108 403.602 158.108C393.45 158.108 384.363 155.789 376.342 151.152C368.321 146.389 361.741 139.747 356.602 131.224C351.464 122.701 348.017 112.8 346.262 101.52ZM417.89 101.52C417.89 96.1308 416.762 91.3681 414.506 87.2321C412.376 83.0961 409.305 79.8375 405.294 77.4561C401.409 75.0748 396.96 73.8841 391.946 73.8841C386.808 73.8841 381.92 75.0748 377.282 77.4561C372.645 79.8375 368.571 83.0961 365.062 87.2321C361.553 91.3681 358.858 96.1308 356.978 101.52C358.858 106.784 361.553 111.484 365.062 115.62C368.571 119.756 372.645 123.015 377.282 125.396C381.92 127.652 386.808 128.78 391.946 128.78C396.96 128.78 401.409 127.652 405.294 125.396C409.305 123.015 412.376 119.756 414.506 115.62C416.762 111.484 417.89 106.784 417.89 101.52Z" fill="white" fill-opacity="0.08"/>
<path d="M209.146 189.128C201.25 189.128 194.231 188.125 188.09 186.12C181.948 184.24 175.995 181.295 170.23 177.284V150.588C176.12 154.348 181.635 157.043 186.774 158.672C191.912 160.301 197.552 161.116 203.694 161.116C208.832 161.116 213.407 159.988 217.418 157.732C221.428 155.476 224.687 151.34 227.194 145.324L268.366 47.752H309.162L257.65 157.168C254.015 165.064 249.566 171.331 244.302 175.968C239.163 180.731 233.586 184.115 227.57 186.12C221.554 188.125 215.412 189.128 209.146 189.128ZM210.462 145.136L164.778 47.752H207.078L247.498 145.136H210.462Z" fill="white" fill-opacity="0.08"/>
<path d="M0 14.1001H38.916V155.1H0V14.1001ZM110.92 14.1001H150.024V155.1H110.92V14.1001ZM21.808 66.1761H127.088V100.768H21.808V66.1761Z" fill="white" fill-opacity="0.08"/>
</svg>
