<svg width="956" height="50" viewBox="0 0 956 50" fill="none" xmlns="http://www.w3.org/2000/svg">
<g clip-path="url(#clip0_142_1243)">
<path d="M63.4817 25.6413C63.4817 32.5815 58.0459 37.6956 51.375 37.6956C44.7042 37.6956 39.2684 32.5815 39.2684 25.6413C39.2684 18.6521 44.7042 13.5869 51.375 13.5869C58.0459 13.5869 63.4817 18.6521 63.4817 25.6413ZM58.182 25.6413C58.182 21.3043 55.0315 18.3369 51.375 18.3369C47.7186 18.3369 44.5681 21.3043 44.5681 25.6413C44.5681 29.9347 47.7186 32.9456 51.375 32.9456C55.0315 32.9456 58.182 29.9293 58.182 25.6413Z" fill="white" fill-opacity="0.4"/>
<path d="M89.5992 25.6413C89.5992 32.5815 84.1635 37.6956 77.4926 37.6956C70.8217 37.6956 65.386 32.5815 65.386 25.6413C65.386 18.6576 70.8217 13.5869 77.4926 13.5869C84.1635 13.5869 89.5992 18.6521 89.5992 25.6413ZM84.2995 25.6413C84.2995 21.3043 81.1491 18.3369 77.4926 18.3369C73.8361 18.3369 70.6857 21.3043 70.6857 25.6413C70.6857 29.9347 73.8361 32.9456 77.4926 32.9456C81.1491 32.9456 84.2995 29.9293 84.2995 25.6413Z" fill="white" fill-opacity="0.4"/>
<path d="M114.629 14.3152V35.9565C114.629 44.8587 109.373 48.4945 103.159 48.4945C97.3094 48.4945 93.789 44.5869 92.4613 41.3913L97.0754 39.4728C97.8971 41.4347 99.9103 43.75 103.153 43.75C107.131 43.75 109.596 41.2989 109.596 36.6847V34.951H109.411C108.224 36.413 105.939 37.6902 103.055 37.6902C97.021 37.6902 91.4928 32.4402 91.4928 25.6847C91.4928 18.8804 97.021 13.5869 103.055 13.5869C105.934 13.5869 108.219 14.8641 109.411 16.2826H109.596V14.3206H114.629V14.3152ZM109.971 25.6847C109.971 21.4402 107.136 18.3369 103.529 18.3369C99.8722 18.3369 96.8088 21.4402 96.8088 25.6847C96.8088 29.8858 99.8722 32.9456 103.529 32.9456C107.136 32.9456 109.971 29.8858 109.971 25.6847Z" fill="white" fill-opacity="0.4"/>
<path d="M122.926 1.63037V36.9565H117.757V1.63037H122.926Z" fill="white" fill-opacity="0.4"/>
<path d="M143.07 29.6087L147.183 32.3478C145.856 34.3098 142.656 37.6902 137.128 37.6902C130.272 37.6902 125.152 32.3968 125.152 25.6359C125.152 18.4674 130.316 13.5815 136.535 13.5815C142.798 13.5815 145.861 18.5598 146.862 21.25L147.412 22.6196L131.279 29.2935C132.514 31.712 134.435 32.9457 137.128 32.9457C139.827 32.9457 141.698 31.6196 143.07 29.6087ZM130.408 25.2718L141.192 20.7989C140.599 19.2935 138.815 18.2446 136.714 18.2446C134.021 18.2446 130.272 20.6196 130.408 25.2718Z" fill="white" fill-opacity="0.4"/>
<path d="M19.702 22.5054V17.3912H36.9559C37.1246 18.2825 37.2117 19.3369 37.2117 20.4782C37.2117 24.3152 36.1615 29.0597 32.7771 32.4402C29.4852 35.8641 25.2792 37.6902 19.7074 37.6902C9.38004 37.6902 0.695923 29.288 0.695923 18.9728C0.695923 8.65754 9.38004 0.255371 19.7074 0.255371C25.4206 0.255371 29.4906 2.4945 32.5486 5.41298L28.9356 9.02168C26.7428 6.96733 23.772 5.3695 19.702 5.3695C12.1605 5.3695 6.26225 11.4402 6.26225 18.9728C6.26225 26.5054 12.1605 32.576 19.702 32.576C24.5936 32.576 27.3795 30.6141 29.1642 28.8315C30.6115 27.3858 31.5637 25.3206 31.9392 22.4999L19.702 22.5054Z" fill="white" fill-opacity="0.4"/>
</g>
<g clip-path="url(#clip1_142_1243)">
<path d="M235.02 31.3791C235.02 33.6785 235.526 35.444 236.187 36.512C237.054 37.911 238.347 38.5037 239.665 38.5037C241.366 38.5037 242.921 38.0827 245.919 33.9466C248.32 30.6314 251.15 25.978 253.054 23.0607L256.278 18.1183C258.518 14.6859 261.11 10.8702 264.083 8.28377C266.509 6.17277 269.127 5 271.762 5C276.184 5 280.397 7.55707 283.622 12.3529C287.15 17.6052 288.863 24.2209 288.863 31.0482C288.863 35.1068 288.061 38.089 286.697 40.445C285.379 42.7236 282.809 45 278.487 45V38.5037C282.188 38.5037 283.112 35.111 283.112 31.2283C283.112 25.6953 281.819 19.555 278.97 15.1675C276.949 12.0555 274.329 10.1539 271.447 10.1539C268.329 10.1539 265.821 12.4995 263.002 16.6817C261.503 18.9037 259.964 21.6115 258.237 24.667L256.335 28.0283C252.514 34.7864 251.547 36.3257 249.636 38.866C246.288 43.3141 243.429 45 239.665 45C235.201 45 232.377 43.0712 230.629 40.1644C229.201 37.7958 228.5 34.688 228.5 31.1466L235.02 31.3791Z" fill="#B27CE3"/>
<path d="M233.641 12.8115C236.63 8.21466 240.944 5 245.892 5C248.757 5 251.605 5.84607 254.58 8.26911C257.834 10.9183 261.301 15.2806 265.628 22.4702L267.179 25.0503C270.924 31.2743 273.055 34.4764 274.302 35.9864C275.905 37.9257 277.028 38.5037 278.487 38.5037C282.188 38.5037 283.112 35.111 283.112 31.2283L288.863 31.0482C288.863 35.1068 288.061 38.089 286.697 40.445C285.379 42.7236 282.809 45 278.487 45C275.8 45 273.42 44.4178 270.788 41.9403C268.764 40.0387 266.398 36.6607 264.578 33.6241L259.165 24.6021C256.448 20.0743 253.957 16.6984 252.514 15.1696C250.963 13.5257 248.969 11.5403 245.787 11.5403C243.211 11.5403 241.024 13.3435 239.193 16.1016L233.641 12.8115Z" fill="#B27CE3"/>
<path d="M245.787 11.5403C243.211 11.5403 241.024 13.3435 239.193 16.1016C236.605 19.999 235.02 25.8042 235.02 31.3791C235.02 33.6785 235.526 35.444 236.187 36.512L230.629 40.1644C229.201 37.7958 228.5 34.688 228.5 31.1466C228.5 24.7068 230.272 17.9948 233.641 12.8115C236.63 8.21466 240.944 5 245.892 5L245.787 11.5403Z" fill="#AF7AE2"/>
<path d="M301.538 6.26489H309.08L321.904 29.4104L334.73 6.26489H342.108V44.2963H335.956V15.1487L324.709 35.333H318.936L307.691 15.1487V44.2963H301.538V6.26489ZM361.387 20.445C356.975 20.445 354.317 23.7581 353.681 27.8607H368.657C368.348 23.6345 365.905 20.445 361.387 20.445ZM347.581 30.1979C347.581 21.5654 353.173 15.2827 361.494 15.2827C369.679 15.2827 374.566 21.4858 374.566 30.6586V32.3445H353.681C354.422 36.8073 357.39 39.8146 362.176 39.8146C365.995 39.8146 368.382 38.6523 370.644 36.5267L373.913 40.5204C370.833 43.3455 366.916 44.9748 361.958 44.9748C352.951 44.9748 347.581 38.422 347.581 30.1979ZM382.026 20.9895H376.363V15.9633H382.026V7.65128H387.962V15.9633H396.567V20.9895H387.962V33.7288C387.962 38.0785 389.356 39.6241 392.782 39.6241C394.346 39.6241 395.242 39.49 396.567 39.2701V44.2419C394.917 44.7068 393.343 44.9204 391.638 44.9204C385.229 44.9204 382.026 41.4272 382.026 34.4345V20.9895ZM421.564 25.8775C420.371 22.8743 417.712 20.6628 413.803 20.6628C408.723 20.6628 405.472 24.2586 405.472 30.1162C405.472 35.8272 408.465 39.5968 413.56 39.5968C417.565 39.5968 420.424 37.2722 421.564 34.3801V25.8775ZM427.5 44.2963H421.673V40.3298C420.044 42.6649 417.08 44.9748 412.279 44.9748C404.558 44.9748 399.399 38.5267 399.399 30.1162C399.399 21.6261 404.682 15.2827 412.607 15.2827C416.524 15.2827 419.597 16.845 421.673 19.6031V15.9633H427.5V44.2963Z" fill="white" fill-opacity="0.4"/>
</g>
<g clip-path="url(#clip2_142_1243)">
<path d="M537.803 44.9622L525.896 44.7451C522.041 44.6696 518.176 44.8206 514.396 44.037C508.646 42.8664 508.239 37.1265 507.813 32.3118C507.225 25.5428 507.453 18.6512 508.561 11.9389C509.186 8.17205 511.649 5.92518 515.457 5.67972C528.312 4.7923 541.251 4.89615 554.077 5.31153C555.432 5.3493 556.796 5.55699 558.132 5.79301C564.725 6.94477 564.886 13.4494 565.312 18.9249C565.738 24.4572 565.558 30.0177 564.744 35.5121C564.09 40.0625 562.84 43.8766 557.563 44.2447C550.951 44.7262 544.491 45.1133 537.86 44.9906C537.86 44.9622 537.822 44.9622 537.803 44.9622ZM530.803 33.4446C535.786 30.5936 540.674 27.7897 545.628 24.9575C540.636 22.1064 535.757 19.3026 530.803 16.4704V33.4446Z" fill="white" fill-opacity="0.4"/>
<path d="M661.129 39.7887C660.902 40.7139 660.703 41.4408 660.504 42.2149H655.843V6.3877H661.281V19.6046C661.565 19.2458 661.707 19.0948 661.83 18.9343C662.758 17.6598 663.961 16.829 665.515 16.5081C667.987 16.0266 670.1 17.1123 670.848 19.4819C671.331 20.9546 671.644 22.5312 671.682 24.07C671.758 28.0256 671.701 31.9718 671.559 35.9275C671.502 37.1359 671.132 38.3726 670.668 39.5055C669.143 43.244 664.16 43.8104 661.688 40.5723C661.536 40.374 661.394 40.1569 661.129 39.7887ZM661.394 29.9327V36.4845C661.394 37.5513 661.963 38.2027 663.033 38.4481C664.085 38.6936 664.937 38.2876 665.363 37.3152C665.543 36.9093 665.723 36.4845 665.733 36.0596C665.837 32.0568 665.932 28.054 665.96 24.0417C665.96 23.2959 665.78 22.5218 665.553 21.7948C665.127 20.4826 663.952 20.0955 662.796 20.8602C661.925 21.4455 661.394 22.2763 661.394 23.3808V29.9327ZM646.617 17.0179H652.31V42.2338H647.867C647.706 41.2803 647.545 40.2985 647.356 39.1467C647.053 39.5904 646.873 39.8736 646.683 40.1569C645.205 42.281 643.112 43.0079 640.64 42.6209C638.527 42.281 637.258 40.6572 636.974 37.995C636.888 37.2019 636.85 36.3995 636.85 35.6065C636.832 29.7061 636.85 23.7868 636.85 17.8864V16.999H642.61V18.028C642.61 23.7302 642.591 29.4229 642.629 35.125C642.629 35.9369 642.714 36.7771 642.856 37.589C643.017 38.4198 643.623 38.7219 644.438 38.6652C645.755 38.5614 646.664 37.589 646.664 36.2862V18.1319C646.617 17.7637 646.617 17.4238 646.617 17.0179ZM607.419 16.999H613.14V18.0658C613.14 23.7396 613.121 29.404 613.159 35.0589C613.159 35.8708 613.235 36.711 613.405 37.504C613.623 38.4387 614.173 38.7408 615.11 38.618C616.408 38.4387 617.194 37.5418 617.204 36.2296V18.1696V17.0367H622.897V42.2338H618.473C618.312 41.2992 618.151 40.3362 617.943 39.1184C617.659 39.5432 617.498 39.7887 617.337 40.0436C615.859 42.2055 613.784 42.9985 611.255 42.6114C609.228 42.3093 607.987 40.8177 607.608 38.3726C607.504 37.6079 607.428 36.8526 607.428 36.0879C607.409 29.961 607.409 23.8057 607.409 17.6787L607.419 16.999ZM604.482 30.4613C604.463 31.311 604.406 32.1606 604.359 33.0103C604.141 35.5593 604.037 39.175 601.972 41.0348C600.655 42.2055 598.988 42.6303 597.264 42.687C596.497 42.7058 595.72 42.7058 594.952 42.602C591.324 42.0544 589.638 40.459 589.032 36.4845C588.34 31.8963 588.284 27.2326 589.108 22.6445C589.96 17.8958 592.897 16.2154 597.463 16.5269C601.725 16.829 603.63 19.614 604.132 23.5791C604.406 25.8543 604.539 28.1578 604.482 30.4613ZM598.685 29.5928C598.685 27.9784 598.723 26.3547 598.666 24.7403C598.628 23.8057 598.505 22.8616 598.306 21.9364C598.078 20.8696 597.396 20.3598 596.544 20.3787C595.71 20.3976 595.123 20.9074 594.82 21.8987C594.716 22.2669 594.602 22.6445 594.602 23.0127C594.602 25.5428 594.583 28.0823 594.564 30.6124C594.545 32.9725 594.242 35.446 594.99 37.7023C595.218 38.3915 595.805 38.7691 596.572 38.7691C597.321 38.7691 597.813 38.4009 598.088 37.7401C598.306 37.2303 598.495 36.6733 598.495 36.1257C598.562 33.9544 598.685 31.7736 598.685 29.5928ZM580.677 24.8441C581.179 22.399 581.653 20.0105 582.174 17.6126C582.827 14.5633 583.557 11.514 584.201 8.4552C584.362 7.70938 584.665 7.53001 585.376 7.54889C586.901 7.60554 588.454 7.56778 590.083 7.56778C589.553 9.51255 589.032 11.3629 588.52 13.185C586.901 18.906 585.281 24.6459 583.68 30.3858C583.557 30.8295 583.5 31.311 583.5 31.783C583.481 34.9173 583.5 38.0422 583.5 41.1765V42.196H577.939C577.92 41.9128 577.883 41.6296 577.883 41.3464C577.883 39.5715 577.74 37.7873 577.902 36.0313C578.309 31.8113 576.964 27.9312 575.874 24.0039C574.434 18.8116 572.976 13.6003 571.536 8.40799C571.46 8.16254 571.432 7.8982 571.356 7.5961H577.03C578.224 13.3266 579.427 19.057 580.677 24.8441ZM689.472 31.4243H679.885C679.989 33.3407 680.027 35.1628 680.226 36.9659C680.368 38.2215 681.06 38.7597 682.149 38.7691C683.286 38.788 683.949 38.2215 684.214 36.9754C684.299 36.5694 684.356 36.1635 684.394 35.7481C684.432 35.3799 684.451 34.9834 684.479 34.4547C686.099 34.5397 687.681 34.6341 689.244 34.7002C690.154 37.3908 688.515 40.846 685.758 41.9128C683.589 42.7625 681.363 42.7625 679.146 42.1111C677.508 41.6296 676.286 40.5911 675.736 38.9957C675.225 37.504 674.741 35.9463 674.637 34.3886C674.353 30.5463 674.249 26.6662 674.836 22.8144C674.94 22.1724 675.12 21.5588 675.319 20.9357C676.115 18.3679 677.849 16.7913 680.529 16.5269C681.988 16.3853 683.494 16.442 684.934 16.6874C687.264 17.0934 688.505 18.7644 689.045 20.9546C689.292 21.9836 689.472 23.041 689.509 24.0889C689.519 26.4963 689.472 28.8847 689.472 31.4243ZM684.025 28.1106C684.025 26.213 684.044 24.4288 684.006 22.635C684.006 22.2102 683.845 21.7665 683.684 21.3606C683.362 20.5675 682.689 20.3504 681.884 20.3504C681.079 20.3504 680.567 20.7564 680.368 21.4833C679.762 23.6641 679.961 25.8921 679.98 28.1295C681.429 28.1106 682.746 28.1106 684.025 28.1106Z" fill="white" fill-opacity="0.4"/>
<path d="M627.292 12.1937H621.656V7.64331H638.48V12.1654H632.881V42.1961H627.302L627.292 12.1937Z" fill="white" fill-opacity="0.4"/>
</g>
<g clip-path="url(#clip3_142_1243)">
<path d="M804.682 8.41531C802.972 6.75653 801.832 4.5365 801.406 2.09822C801.35 1.77394 801.306 1.44343 801.275 1.11916V0.0153809H792.631V34.1701C792.618 38.1487 789.368 41.3727 785.365 41.3727C784.188 41.3727 783.079 41.0921 782.096 40.5995C780.894 39.9975 779.883 39.0744 779.177 37.9335C778.472 36.7926 778.099 35.4788 778.1 34.1389C778.1 30.1479 781.35 26.9051 785.365 26.9051C786.136 26.9051 786.875 27.0236 787.57 27.2419V18.499C786.85 18.3992 786.117 18.3493 785.39 18.3493C776.609 18.368 769.5 25.4459 769.5 34.1701C769.5 39.6454 772.294 44.4658 776.54 47.3032C779.154 49.0529 782.234 49.9846 785.384 49.9785C794.159 49.9785 801.268 42.9006 801.268 34.1701V16.7155C804.761 19.2031 808.95 20.5379 813.244 20.5319V11.9823C811.922 11.9823 810.613 11.7703 809.373 11.3525C808.503 11.0594 806.855 10.5356 804.676 8.41531H804.682Z" fill="white" fill-opacity="0.4"/>
<path fill-rule="evenodd" clip-rule="evenodd" d="M824.744 14.3771V20.3886H831.815V43.2873H838.887V20.5508H844.643L846.616 14.3771H824.744ZM882.637 14.3771V20.3886H889.708V43.2873H896.78V20.5508H902.536L904.509 14.3771H882.637ZM847.937 17.7882C847.937 15.9049 849.478 14.3771 851.389 14.3771C853.299 14.3771 854.846 15.9049 854.846 17.7882C854.846 19.6715 853.299 21.1993 851.389 21.1993C849.478 21.1993 847.937 19.6715 847.937 17.7882ZM847.937 23.6376H854.84V43.2873H847.937V23.6376ZM857.802 14.3771V43.2873H864.711V35.8166L866.847 33.8647L873.586 43.4495H880.99L871.288 29.4808L880.006 21.0309H871.62L864.711 27.8531V14.3708H857.802V14.3771ZM932.306 14.3771V43.2873H939.215V35.8166L941.351 33.8647L948.097 43.4495H955.5L945.798 29.4808L954.517 21.0309H946.13L939.221 27.8531V14.3708H932.313L932.306 14.3771ZM916.184 43.4495C922.817 43.4495 928.191 38.1426 928.191 31.5948C928.191 25.0469 922.817 19.7401 916.184 19.7401H916.021C909.388 19.7401 904.014 25.0469 904.014 31.5948C904.014 38.1426 909.388 43.4495 916.021 43.4495H916.184ZM910.265 31.5948C910.265 28.4082 912.883 25.8327 916.103 25.8327C919.322 25.8327 921.94 28.4144 921.94 31.5948C921.94 34.7751 919.322 37.3631 916.103 37.3631C912.877 37.3631 910.265 34.7814 910.265 31.5948Z" fill="white" fill-opacity="0.4"/>
</g>
<defs>
<clipPath id="clip0_142_1243">
<rect width="148" height="50" fill="white" transform="translate(0.5)"/>
</clipPath>
<clipPath id="clip1_142_1243">
<rect width="199" height="40" fill="white" transform="translate(228.5 5)"/>
</clipPath>
<clipPath id="clip2_142_1243">
<rect width="182" height="40" fill="white" transform="translate(507.5 5)"/>
</clipPath>
<clipPath id="clip3_142_1243">
<rect width="186" height="50" fill="white" transform="translate(769.5)"/>
</clipPath>
</defs>
</svg>
