<svg width="81" height="60" viewBox="0 0 81 60" fill="none" xmlns="http://www.w3.org/2000/svg">
<path d="M80.2326 0L63.2071 36.6316L61.7174 26.7368C64.9806 26.7368 67.8891 27.5088 70.4429 29.0526C72.9967 30.5965 75.054 32.6316 76.6146 35.1579C78.1753 37.5439 78.9557 40.2807 78.9557 43.3684C78.9557 46.4561 78.1753 49.2632 76.6146 51.7895C75.054 54.3158 72.9967 56.3509 70.4429 57.8947C67.8891 59.2982 64.9806 60 61.7174 60C58.596 60 55.6875 59.2982 52.9918 57.8947C50.438 56.3509 48.3807 54.2456 46.8201 51.579C45.2594 48.9123 44.4791 45.9649 44.4791 42.7368C44.4791 39.5088 45.1175 36.1404 46.3944 32.6316C47.8132 29.1228 50.2961 24.5614 53.8431 18.9474L65.3353 0H80.2326ZM35.7535 0L18.728 36.6316L17.2383 26.7368C20.5015 26.7368 23.41 27.5088 25.9639 29.0526C28.5177 30.5965 30.5749 32.6316 32.1356 35.1579C33.6963 37.5439 34.4766 40.2807 34.4766 43.3684C34.4766 46.4561 33.6963 49.2632 32.1356 51.7895C30.5749 54.3158 28.5177 56.3509 25.9639 57.8947C23.41 59.2982 20.5015 60 17.2383 60C14.117 60 11.2084 59.2982 8.51274 57.8947C5.95892 56.3509 3.90167 54.2456 2.341 51.579C0.780334 48.9123 0 45.9649 0 42.7368C0 39.5088 0.638455 36.1404 1.91537 32.6316C3.33416 29.1228 5.81704 24.5614 9.36401 18.9474L20.8562 0H35.7535Z" fill="black" fill-opacity="0.05"/>
</svg>
