<svg width="500" height="100" viewBox="0 0 500 100" fill="none" xmlns="http://www.w3.org/2000/svg">
<path d="M439.712 57.5061C439.474 59.8633 438.616 61.9206 437.137 63.6885C435.668 65.4564 433.765 66.8314 431.407 67.8136C429.091 68.7957 426.464 69.2816 423.569 69.2816C420.352 69.2816 417.529 68.7027 415.089 67.5448C412.638 66.3765 410.735 64.7637 409.359 62.6857C407.984 60.6076 407.291 58.1987 407.291 55.4901C407.291 52.7814 407.974 50.3208 409.359 48.2531C410.735 46.1751 412.648 44.5623 415.089 43.394C417.539 42.2051 420.363 41.6055 423.569 41.6055C426.475 41.6055 429.091 42.1121 431.407 43.1149C433.765 44.0971 435.668 45.4721 437.137 47.24C438.616 48.9768 439.453 51.0445 439.712 53.4224H430.394C430.063 51.8716 429.287 50.662 428.046 49.8453C426.826 48.9872 425.327 48.5633 423.548 48.5633C422.172 48.5633 420.962 48.8424 419.928 49.3904C418.925 49.9073 418.119 50.693 417.539 51.7268C416.991 52.7297 416.712 53.991 416.712 55.4901C416.712 56.9891 416.991 58.2091 417.539 59.2533C418.119 60.2561 418.915 61.0419 419.928 61.5898C420.973 62.1067 422.183 62.3652 423.548 62.3652C425.316 62.3652 426.816 61.9206 428.046 61.0418C429.308 60.1527 430.084 58.9845 430.394 57.5061H439.712Z" fill="white"/>
<path d="M363.567 39.4862C361.757 39.4862 360.465 39.8067 359.668 40.4477C358.903 41.0887 358.52 42.1329 358.52 43.5699V68.5477H349.12V44.3867C349.12 41.8434 349.627 39.7033 350.63 37.9251C351.633 36.1572 353.122 34.8029 355.077 33.8931C357.062 32.9833 359.523 32.5181 362.46 32.5181C363.629 32.5181 364.673 32.6111 365.625 32.7972C366.607 32.9833 367.569 33.2417 368.521 33.5726V40.4477C367.755 40.1169 366.969 39.8687 366.132 39.7136C365.335 39.5689 364.487 39.4862 363.557 39.4862H363.567ZM343.784 51.4479V44.5314H368.138V51.4479H343.784ZM386.132 39.4862C384.322 39.4862 383.03 39.8067 382.233 40.4477C381.437 41.0887 381.044 42.1329 381.044 43.5699V68.5477H371.695V44.3867C371.695 41.8434 372.202 39.7033 373.205 37.9251C374.208 36.1572 375.698 34.8029 377.652 33.8931C379.638 32.9833 382.089 32.5181 384.995 32.5181C386.184 32.5181 387.259 32.6111 388.211 32.7972C389.162 32.9833 390.124 33.2417 391.106 33.5726V40.4477C390.341 40.1169 389.555 39.8687 388.718 39.7136C387.921 39.5689 387.073 39.4862 386.143 39.4862H386.132ZM366.359 51.4479V44.5314H390.713V51.4479H366.359ZM393.93 41.9571L398.656 42.8669L403.33 41.9571V68.5374H393.93V41.9571ZM398.614 39.8067C396.991 39.8067 395.677 39.4035 394.674 38.6178C393.671 37.7907 393.164 36.6741 393.164 35.2681C393.164 33.8621 393.671 32.7972 394.674 31.9598C395.677 31.1327 396.991 30.7295 398.614 30.7295C400.238 30.7295 401.624 31.143 402.606 31.9598C403.609 32.7869 404.116 33.8827 404.116 35.2681C404.116 36.6535 403.609 37.7907 402.606 38.6178C401.624 39.4035 400.3 39.8067 398.614 39.8067Z" fill="white"/>
<path d="M331.167 68.5476L329.978 59.1085L331.208 55.4797L329.978 51.851L331.167 42.3602H340.898L339.254 55.428L340.898 68.5372H331.167V68.5476ZM333.37 55.4797C332.946 58.2401 332.087 60.649 330.795 62.7167C329.533 64.7947 327.94 66.4075 325.976 67.5758C324.042 68.7027 321.849 69.2713 319.367 69.2713C316.885 69.2713 314.527 68.713 312.573 67.5758C310.639 66.4075 309.129 64.7947 308.033 62.7167C306.937 60.6179 306.389 58.1884 306.389 55.4797C306.389 52.771 306.937 50.2691 308.033 48.2014C309.129 46.1234 310.649 44.5106 312.573 43.3423C314.527 42.1741 316.792 41.6055 319.367 41.6055C321.942 41.6055 324.042 42.1844 325.976 43.3423C327.93 44.4692 329.554 46.0717 330.836 48.1601C332.118 50.2071 332.966 52.6573 333.359 55.4901L333.37 55.4797ZM315.882 55.4797C315.882 56.7617 316.141 57.8989 316.658 58.9224C317.206 59.9253 317.961 60.7317 318.912 61.3003C319.864 61.8482 320.95 62.1274 322.17 62.1274C323.39 62.1274 324.662 61.8482 325.789 61.3003C326.917 60.7213 327.92 59.9253 328.778 58.9224C329.636 57.9196 330.278 56.772 330.712 55.4797C330.288 54.1667 329.636 53.0088 328.778 51.9956C327.92 50.9928 326.927 50.1864 325.789 49.6178C324.662 49.0388 323.442 48.7494 322.17 48.7494C320.898 48.7494 319.864 49.0388 318.912 49.6178C317.961 50.1968 317.216 50.9928 316.658 51.9956C316.141 52.9985 315.882 54.1667 315.882 55.4797Z" fill="white"/>
<path d="M281.569 42.3812H291.104L292.655 51.7376V68.5583H283.306V51.1897L281.569 42.3812ZM304.972 41.9574V49.9387C304.062 49.7526 303.193 49.6286 302.356 49.5769C301.559 49.4838 300.825 49.4425 300.153 49.4425C298.808 49.4425 297.567 49.7216 296.44 50.2695C295.313 50.7865 294.393 51.6653 293.689 52.8852C293.017 54.1051 292.686 55.7386 292.686 57.7856L290.907 55.5939C291.145 53.6916 291.518 51.9237 292.004 50.2799C292.5 48.5947 293.152 47.1163 293.979 45.8343C294.837 44.5213 295.892 43.4978 297.143 42.7638C298.405 41.9987 299.925 41.6162 301.725 41.6162C302.242 41.6162 302.78 41.6473 303.328 41.7093C303.876 41.7713 304.424 41.854 304.972 41.9884H304.982L304.972 41.9574Z" fill="white"/>
<path d="M252.871 49.2975V45.2138L258.187 43.0634L262.22 35.3096H267.536V42.3604H278.549V49.2768H267.536V56.979C267.536 58.8813 267.908 60.2046 268.683 60.9697C269.449 61.7347 270.845 62.1173 272.861 62.1173C274.144 62.1173 275.271 62.0139 276.253 61.7968C277.257 61.559 278.187 61.2488 279.004 60.887V67.9379C278.094 68.2687 276.874 68.5789 275.385 68.8477C273.896 69.1165 272.344 69.2612 270.752 69.2612C267.846 69.2612 265.457 68.8166 263.595 67.9379C261.765 67.0488 260.41 65.7874 259.51 64.1332C258.621 62.4481 258.187 60.4941 258.187 58.2713V49.2872H252.871V49.2975Z" fill="white"/>
<path d="M237.39 69.282C234.215 69.282 231.361 68.7031 228.858 67.5452C226.376 66.3769 224.422 64.7641 222.984 62.6861C221.547 60.5874 220.823 58.1371 220.823 55.356C220.823 52.575 221.505 50.2592 222.891 48.2122C224.267 46.1341 226.149 44.5213 228.527 43.3531C230.937 42.1848 233.657 41.6162 236.687 41.6162C239.717 41.6162 242.519 42.2985 244.712 43.6736C246.946 45.0176 248.652 46.9302 249.841 49.4011C251.062 51.872 251.672 54.7978 251.672 58.1578H228.372V52.5233H246.408L243.336 54.4876C243.212 53.1436 242.881 52.0167 242.333 51.0966C241.785 50.1455 241.051 49.4321 240.13 48.9462C239.241 48.45 238.176 48.2122 236.914 48.2122C235.539 48.2122 234.36 48.4913 233.378 49.0392C232.395 49.5872 231.64 50.3523 231.082 51.3241C230.534 52.2752 230.254 53.3814 230.254 54.6737C230.254 56.3176 230.616 57.7236 231.351 58.8919C232.116 60.0188 233.212 60.8975 234.66 61.5075C236.128 62.1174 237.917 62.4173 240.027 62.4173C241.961 62.4173 243.874 62.1794 245.756 61.6832C247.69 61.1663 249.428 60.453 250.979 59.5328V65.4878C249.169 66.7078 247.111 67.6589 244.784 68.3309C242.488 68.9719 240.017 69.2924 237.349 69.2924L237.39 69.2717V69.282Z" fill="white"/>
<path d="M184.607 42.381H194.007V49.9074L193.594 51.0033V58.3332L194.007 60.4837V76.1155H184.607V42.381ZM191.039 55.4798C191.443 52.6367 192.26 50.1969 193.521 48.1498C194.804 46.0718 196.427 44.4693 198.382 43.3321C200.336 42.1638 202.56 41.5952 205.042 41.5952C207.524 41.5952 209.851 42.1742 211.784 43.3321C213.739 44.5003 215.259 46.1131 216.324 48.1912C217.42 50.2692 217.969 52.6988 217.969 55.4695C217.969 58.2402 217.42 60.6078 216.324 62.7065C215.249 64.7845 213.739 66.3973 211.784 67.5655C209.851 68.6924 207.606 69.261 205.042 69.261C202.477 69.261 200.347 68.7027 198.382 67.5655C196.427 66.3973 194.814 64.7845 193.573 62.7065C192.311 60.6284 191.484 58.2092 191.05 55.4695L191.039 55.4798ZM208.506 55.4798C208.506 54.1668 208.227 53.0089 207.679 51.9957C207.162 50.9929 206.407 50.1865 205.424 49.6179C204.473 49.0389 203.387 48.7495 202.167 48.7495C200.946 48.7495 199.716 49.0389 198.589 49.6179C197.461 50.1969 196.458 50.9929 195.6 51.9957C194.742 52.9986 194.09 54.1668 193.625 55.4798C194.08 56.7618 194.742 57.899 195.6 58.9225C196.458 59.9254 197.451 60.7318 198.589 61.3004C199.716 61.8483 200.905 62.1275 202.167 62.1275C203.428 62.1275 204.473 61.8483 205.424 61.3004C206.407 60.7214 207.151 59.9254 207.679 58.9225C208.227 57.9197 208.506 56.7721 208.506 55.4798Z" fill="white"/>
<path d="M157.584 76.8393C155.65 76.8393 153.944 76.6015 152.455 76.1052C150.955 75.6503 149.508 74.9266 148.101 73.9548V67.4519C149.539 68.3617 150.883 69.0337 152.134 69.4162C153.396 69.8194 154.761 70.0158 156.261 70.0158C157.522 70.0158 158.629 69.7367 159.611 69.1888C160.594 68.6408 161.38 67.638 162 66.1596L172.052 42.3707H182.011L169.446 69.044C168.557 70.967 167.471 72.4971 166.189 73.624C164.927 74.7923 163.572 75.609 162.104 76.1052C160.635 76.6015 159.146 76.8393 157.605 76.8393H157.584ZM157.895 66.1079L146.746 42.3604H157.067L166.933 66.1079H157.884H157.895Z" fill="white"/>
<path d="M106.549 34.1724H116.042V68.5479H106.549V34.1724ZM133.613 34.1724H143.148V68.5479H133.613V34.1724ZM111.865 46.8577H137.553V55.2939H111.865V46.8577Z" fill="white"/>
<path d="M72.1117 26.8527C75.5037 30.1507 78.0787 32.9628 80.5504 37.1292C87.0345 48.0466 89.8474 60.8767 90.1887 73.5207C85.2247 73.4277 79.6196 72.9211 75.2451 70.4192C71.9979 68.5582 68.73 64.4849 68.9161 60.5976C68.6783 62.0553 68.761 62.3552 68.5231 63.1616C65.8861 71.9907 55.9789 73.314 48.0262 73.5311C47.7677 64.7227 49.4327 55.7178 52.4938 47.4884C55.8237 38.5353 61.2944 29.8612 68.8437 24.0096C70.033 23.8339 71.3154 26.1084 72.1013 26.8734L72.1117 26.8527ZM80.4056 47.2092C75.2658 46.8887 70.5604 42.3605 69.3401 37.5014C69.2298 37.0741 69.0989 36.4882 68.9472 35.7439C68.5128 37.7599 67.6855 40.5306 66.4031 42.164C66.1446 42.4949 65.5241 43.0325 65.0898 43.5184C62.9387 45.9066 60.8601 46.3512 57.9748 47.1989L57.4784 47.3436C61.3461 47.3333 65.5138 51.0862 67.3236 54.3945C67.82 55.2939 68.2646 56.3072 68.2646 56.3072C68.6576 57.372 68.5749 57.1446 68.9265 59.3467C68.8127 54.9218 73.3216 49.8766 77.3858 48.3982C78.6061 47.9536 80.4159 47.2092 80.4159 47.2092H80.4056Z" fill="#E5F355"/>
</svg>
