<svg width="285" height="36" viewBox="0 0 285 36" fill="none" xmlns="http://www.w3.org/2000/svg">
<path d="M17.5248 2.07341C19.9902 4.47044 21.8617 6.5143 23.6582 9.54252C28.3709 17.4775 30.4154 26.8026 30.6634 35.9925C27.0556 35.9249 22.9817 35.5567 19.8022 33.7382C17.4421 32.3857 15.0669 29.4251 15.2022 26.5997C15.0293 27.6592 15.0895 27.8772 14.9166 28.4633C12.9999 34.8804 5.79917 35.8422 0.0190605 36C-0.16885 29.5979 1.0413 23.053 3.26615 17.0718C5.68643 10.5645 9.66261 4.26004 15.1496 0.00701099C16.014 -0.12073 16.946 1.53241 17.5173 2.08846L17.5248 2.07341ZM23.5529 16.8689C19.8173 16.6359 16.3973 13.3447 15.5104 9.81307C15.4302 9.50248 15.335 9.07667 15.2248 8.53564C14.9091 10.0009 14.3078 12.0147 13.3757 13.2019C13.1878 13.4424 12.7368 13.8332 12.4211 14.1863C10.8577 15.9221 9.34691 16.2452 7.24984 16.8614L6.88906 16.9665C9.7002 16.959 12.7293 19.6867 14.0447 22.0912C14.4055 22.745 14.7287 23.4814 14.7287 23.4814C15.0143 24.2553 14.9542 24.09 15.2097 25.6906C15.127 22.4745 18.4042 18.8075 21.3581 17.733C22.2451 17.4099 23.5604 16.8689 23.5604 16.8689H23.5529Z" fill="#E5F355"/>
<path d="M284.333 20.7053C284.16 22.4185 283.536 23.9138 282.462 25.1987C281.394 26.4837 280.011 27.4831 278.298 28.1969C276.614 28.9108 274.705 29.2639 272.6 29.2639C270.262 29.2639 268.211 28.8431 266.437 28.0016C264.655 27.1525 263.272 25.9802 262.273 24.4699C261.273 22.9595 260.769 21.2087 260.769 19.24C260.769 17.2713 261.265 15.4829 262.273 13.9801C263.272 12.4697 264.663 11.2975 266.437 10.4484C268.218 9.58425 270.27 9.14844 272.6 9.14844C274.712 9.14844 276.614 9.51665 278.298 10.2455C280.011 10.9594 281.394 11.9588 282.462 13.2437C283.536 14.5061 284.145 16.0089 284.333 17.7372H277.561C277.32 16.61 276.757 15.7309 275.855 15.1373C274.968 14.5136 273.878 14.2055 272.585 14.2055C271.585 14.2055 270.706 14.4084 269.954 14.8066C269.225 15.1824 268.639 15.7534 268.218 16.5048C267.82 17.2337 267.617 18.1504 267.617 19.24C267.617 20.3295 267.82 21.2162 268.218 21.9752C268.639 22.704 269.218 23.2751 269.954 23.6734C270.713 24.0491 271.593 24.2369 272.585 24.2369C273.87 24.2369 274.96 23.9138 275.855 23.2751C276.772 22.6289 277.335 21.7798 277.561 20.7053H284.333Z" fill="white"/>
<path d="M228.99 7.60795C227.675 7.60795 226.735 7.84089 226.156 8.30677C225.6 8.77265 225.322 9.53159 225.322 10.5761V28.7303H218.49V11.1697C218.49 9.32118 218.858 7.76574 219.587 6.4733C220.316 5.18837 221.398 4.204 222.819 3.54275C224.262 2.8815 226.051 2.54339 228.186 2.54339C229.035 2.54339 229.794 2.61099 230.486 2.74625C231.2 2.8815 231.899 3.06936 232.59 3.30981V8.30677C232.034 8.06631 231.463 7.88595 230.854 7.77324C230.275 7.66804 229.659 7.60795 228.982 7.60795H228.99ZM214.611 16.3019V11.2749H232.312V16.3019H214.611ZM245.391 7.60795C244.075 7.60795 243.136 7.84089 242.557 8.30677C241.978 8.77265 241.693 9.53159 241.693 10.5761V28.7303H234.898V11.1697C234.898 9.32118 235.266 7.76574 235.995 6.4733C236.724 5.18837 237.807 4.204 239.227 3.54275C240.67 2.8815 242.452 2.54339 244.564 2.54339C245.428 2.54339 246.21 2.61099 246.902 2.74625C247.593 2.8815 248.292 3.06936 249.006 3.30981V8.30677C248.45 8.06631 247.879 7.88595 247.27 7.77324C246.691 7.66804 246.075 7.60795 245.398 7.60795H245.391ZM231.019 16.3019V11.2749H248.721V16.3019H231.019ZM251.058 9.40385L254.493 10.0651L257.891 9.40385V28.7228H251.058V9.40385ZM254.463 7.84089C253.283 7.84089 252.328 7.54782 251.599 6.97674C250.87 6.3756 250.502 5.56408 250.502 4.54215C250.502 3.52022 250.87 2.74625 251.599 2.1376C252.328 1.53646 253.283 1.24341 254.463 1.24341C255.643 1.24341 256.65 1.54398 257.364 2.1376C258.093 2.73873 258.462 3.53525 258.462 4.54215C258.462 5.54905 258.093 6.3756 257.364 6.97674C256.65 7.54782 255.688 7.84089 254.463 7.84089Z" fill="white"/>
<path d="M205.441 28.7304L204.577 21.87L205.471 19.2325L204.577 16.595L205.441 9.69696H212.514L211.319 19.1949L212.514 28.7229H205.441V28.7304ZM207.042 19.2325C206.734 21.2388 206.11 22.9896 205.17 24.4924C204.253 26.0028 203.096 27.175 201.668 28.0241C200.262 28.8431 198.669 29.2564 196.865 29.2564C195.061 29.2564 193.347 28.8506 191.927 28.0241C190.521 27.175 189.424 26.0028 188.627 24.4924C187.83 22.967 187.432 21.2012 187.432 19.2325C187.432 17.2637 187.83 15.4453 188.627 13.9425C189.424 12.4321 190.529 11.2599 191.927 10.4108C193.347 9.56171 194.993 9.14844 196.865 9.14844C198.736 9.14844 200.262 9.56923 201.668 10.4108C203.088 11.2299 204.269 12.3946 205.201 13.9125C206.133 15.4003 206.749 17.1811 207.035 19.24L207.042 19.2325ZM194.332 19.2325C194.332 20.1642 194.52 20.9908 194.896 21.7347C195.294 22.4636 195.843 23.0497 196.534 23.463C197.226 23.8612 198.015 24.0641 198.902 24.0641C199.789 24.0641 200.713 23.8612 201.533 23.463C202.352 23.0422 203.081 22.4636 203.705 21.7347C204.329 21.0058 204.795 20.1717 205.11 19.2325C204.802 18.2782 204.329 17.4366 203.705 16.7002C203.081 15.9713 202.359 15.3852 201.533 14.9719C200.713 14.5511 199.826 14.3408 198.902 14.3408C197.977 14.3408 197.226 14.5511 196.534 14.9719C195.843 15.3927 195.301 15.9713 194.896 16.7002C194.52 17.4291 194.332 18.2782 194.332 19.2325Z" fill="white"/>
<path d="M169.393 9.71229H176.323L177.45 16.5126V28.7382H170.655V16.1144L169.393 9.71229ZM186.402 9.40423V15.2052C185.741 15.0699 185.109 14.9798 184.501 14.9422C183.922 14.8746 183.388 14.8445 182.9 14.8445C181.922 14.8445 181.02 15.0474 180.201 15.4456C179.382 15.8213 178.713 16.4601 178.202 17.3467C177.713 18.2334 177.473 19.4206 177.473 20.9085L176.18 19.3154C176.353 17.9328 176.623 16.6479 176.977 15.4531C177.337 14.2283 177.811 13.1538 178.412 12.2221C179.036 11.2678 179.803 10.5238 180.712 9.99031C181.629 9.43426 182.734 9.15625 184.042 9.15625C184.418 9.15625 184.809 9.17881 185.207 9.2239C185.605 9.26898 186.004 9.32907 186.402 9.42675H186.41L186.402 9.40423Z" fill="white"/>
<path d="M148.534 14.7389V11.7708L152.398 10.2079L155.329 4.57227H159.193V9.6969H167.198V14.7239H159.193V20.322C159.193 21.7046 159.463 22.6664 160.027 23.2224C160.583 23.7785 161.598 24.0566 163.064 24.0566C163.996 24.0566 164.815 23.9814 165.529 23.8236C166.258 23.6508 166.935 23.4254 167.528 23.1624V28.2871C166.867 28.5275 165.98 28.7529 164.898 28.9483C163.815 29.1437 162.688 29.2488 161.53 29.2488C159.418 29.2488 157.682 28.9258 156.329 28.2871C154.999 27.6408 154.014 26.7241 153.36 25.5218C152.714 24.297 152.398 22.8768 152.398 21.2613V14.7314H148.534V14.7389Z" fill="white"/>
<path d="M137.282 29.2642C134.975 29.2642 132.9 28.8434 131.081 28.0019C129.277 27.1527 127.857 25.9805 126.812 24.4702C125.767 22.9448 125.241 21.1639 125.241 19.1426C125.241 17.1213 125.737 15.4381 126.744 13.9503C127.744 12.44 129.112 11.2677 130.841 10.4186C132.592 9.56952 134.569 9.15625 136.771 9.15625C138.974 9.15625 141.01 9.65218 142.604 10.6516C144.228 11.6284 145.468 13.0185 146.332 14.8144C147.219 16.6103 147.662 18.7368 147.662 21.179H130.728V17.0837H143.837L141.604 18.5114C141.514 17.5346 141.274 16.7155 140.875 16.0467C140.477 15.3554 139.943 14.837 139.274 14.4838C138.628 14.1231 137.854 13.9503 136.937 13.9503C135.937 13.9503 135.08 14.1532 134.366 14.5514C133.652 14.9497 133.103 15.5058 132.697 16.2121C132.299 16.9034 132.096 17.7074 132.096 18.6467C132.096 19.8414 132.359 20.8634 132.893 21.7125C133.449 22.5315 134.246 23.1702 135.298 23.6135C136.365 24.0569 137.666 24.2748 139.199 24.2748C140.605 24.2748 141.995 24.102 143.363 23.7413C144.769 23.3656 146.031 22.8471 147.159 22.1784V26.5065C145.844 27.3932 144.348 28.0845 142.657 28.5729C140.988 29.0388 139.192 29.2718 137.252 29.2718L137.282 29.2567V29.2642Z" fill="white"/>
<path d="M98.9186 9.71195H105.751V15.1823L105.45 15.9788V21.3063L105.751 22.8693V34.2308H98.9186V9.71195ZM103.594 19.2324C103.887 17.166 104.481 15.3927 105.398 13.9049C106.33 12.3945 107.51 11.2298 108.93 10.4032C110.351 9.55414 111.967 9.14087 113.771 9.14087C115.575 9.14087 117.266 9.56166 118.672 10.4032C120.092 11.2524 121.197 12.4246 121.971 13.9349C122.768 15.4453 123.166 17.2111 123.166 19.2249C123.166 21.2387 122.768 22.9595 121.971 24.4849C121.19 25.9952 120.092 27.1674 118.672 28.0165C117.266 28.8356 115.635 29.2488 113.771 29.2488C111.907 29.2488 110.359 28.8431 108.93 28.0165C107.51 27.1674 106.337 25.9952 105.435 24.4849C104.518 22.9745 103.917 21.2162 103.601 19.2249L103.594 19.2324ZM116.289 19.2324C116.289 18.2781 116.086 17.4365 115.688 16.7001C115.312 15.9713 114.763 15.3852 114.049 14.9719C113.358 14.5511 112.568 14.3407 111.681 14.3407C110.794 14.3407 109.9 14.5511 109.081 14.9719C108.261 15.3927 107.532 15.9713 106.909 16.7001C106.285 17.429 105.811 18.2781 105.473 19.2324C105.804 20.1642 106.285 20.9908 106.909 21.7347C107.532 22.4635 108.254 23.0496 109.081 23.4629C109.9 23.8612 110.764 24.0641 111.681 24.0641C112.598 24.0641 113.358 23.8612 114.049 23.4629C114.763 23.0421 115.304 22.4635 115.688 21.7347C116.086 21.0058 116.289 20.1717 116.289 19.2324Z" fill="white"/>
<path d="M79.2782 34.7566C77.8726 34.7566 76.6324 34.5838 75.5501 34.2231C74.4602 33.8925 73.4079 33.3665 72.3856 32.6601V27.9337C73.4304 28.595 74.4075 29.0834 75.317 29.3614C76.234 29.6545 77.2262 29.7972 78.3161 29.7972C79.2331 29.7972 80.0373 29.5944 80.7514 29.1961C81.4655 28.7979 82.0367 28.069 82.4877 26.9945L89.7936 9.7043H97.0319L87.8995 29.0909C87.2531 30.4885 86.4639 31.6007 85.5318 32.4197C84.6148 33.2688 83.6302 33.8624 82.5628 34.2231C81.4955 34.5838 80.4132 34.7566 79.2932 34.7566H79.2782ZM79.5037 26.9569L71.401 9.69678H78.9024L86.073 26.9569H79.4962H79.5037Z" fill="white"/>
<path d="M42.1848 3.74585H49.0849V28.7305H42.1848V3.74585ZM61.8552 3.74585H68.7854V28.7305H61.8552V3.74585ZM46.0483 12.9658H64.719V19.0973H46.0483V12.9658Z" fill="white"/>
</svg>
